<svg width="170" height="99" viewBox="0 0 170 99" fill="none" xmlns="http://www.w3.org/2000/svg">
<g clip-path="url(#clip0_197_812)">
<path d="M29.3495 0H0V29.2757L29.3495 0Z" fill="white"/>
<path d="M65.2209 86.5543H86.7722V65.0571L65.2209 86.5543Z" fill="white"/>
<path d="M0 41.7212V86.5541H44.9458L0 41.7212Z" fill="white"/>
<path d="M30.4836 11.0317L41.1175 28.0032H41.2593V11.0317H46.5053V36.4889H40.8339L30.2001 19.5175H30.0583V36.4889H24.8123V11.0317H30.4836Z" fill="white"/>
<path d="M70.4669 11.0316V15.6987H56.9974V21.2144H69.3327V25.4573H56.9974V31.6801H70.7505V36.3473H51.4678V10.8901H70.4669V11.0316Z" fill="white"/>
<path d="M72.5938 15.6989V11.0317H93.4361V15.6989H85.7797V36.4889H80.1083V15.6989H72.5938Z" fill="white"/>
<path d="M107.898 11.0317C109.458 11.0317 110.876 11.3146 112.01 11.7389C113.144 12.1632 113.995 12.8703 114.704 13.5775C115.413 14.2846 115.98 15.2746 116.263 16.1232C116.547 17.1132 116.689 18.1032 116.689 19.0932C116.689 20.0832 116.547 21.0732 116.263 22.0632C115.98 23.0532 115.413 23.9017 114.704 24.7503C113.995 25.4575 113.144 26.1646 112.01 26.5889C110.876 27.0132 109.599 27.296 107.898 27.296H101.943V36.4889H96.2717V11.0317H107.898ZM106.338 22.9117C107.047 22.9117 107.615 22.9117 108.182 22.7703C108.749 22.6289 109.316 22.4875 109.741 22.2046C110.167 21.9217 110.592 21.4975 110.876 21.0732C111.159 20.5075 111.301 19.9417 111.301 19.0932C111.301 18.2446 111.159 17.6789 110.876 17.1132C110.592 16.5475 110.308 16.2646 109.741 15.9817C109.316 15.6989 108.749 15.5575 108.182 15.416C107.615 15.2746 106.906 15.2746 106.338 15.2746H101.943V22.9117H106.338Z" fill="white"/>
<path d="M133.987 11.0316C135.121 11.0316 136.113 11.173 137.106 11.5973C137.957 12.0216 138.807 12.4459 139.516 13.153C140.225 13.8601 140.65 14.5673 141.076 15.4159C141.359 16.2644 141.643 17.113 141.643 18.103C141.643 19.6587 141.359 20.9316 140.65 21.9216C140.083 23.053 138.949 23.9016 137.531 24.4673V24.6087C138.24 24.7501 138.807 25.033 139.233 25.4573C139.658 25.8816 140.083 26.3059 140.367 26.8716C140.65 27.4373 140.792 28.003 140.934 28.5687C141.076 29.2759 141.218 29.8416 141.218 30.5487C141.218 30.973 141.218 31.3973 141.359 31.963C141.359 32.5287 141.359 33.0944 141.501 33.6601C141.501 34.2258 141.643 34.7916 141.785 35.2159C141.926 35.7816 142.068 36.2058 142.352 36.4887H136.68C136.397 35.6401 136.113 34.6501 136.113 33.6601C135.972 32.5287 135.972 31.5387 135.83 30.4073C135.688 29.1344 135.263 28.1444 134.554 27.4373C133.987 26.8716 132.852 26.4473 131.576 26.4473H125.905V36.3473H120.233V10.8901H133.987V11.0316ZM132.002 22.4873C133.278 22.4873 134.27 22.2044 134.837 21.6387C135.546 21.073 135.83 20.083 135.83 18.8101C135.83 17.5373 135.546 16.6887 134.837 16.123C134.128 15.5573 133.278 15.2744 132.002 15.2744H125.905V22.4873H132.002Z" fill="white"/>
<path d="M145.755 18.5272C146.322 16.8301 147.173 15.4158 148.165 14.2844C149.299 13.0115 150.575 12.163 152.135 11.4558C153.695 10.7487 155.396 10.4658 157.381 10.4658C159.366 10.4658 161.068 10.7487 162.627 11.4558C164.187 12.163 165.463 13.153 166.597 14.2844C167.731 15.5572 168.44 16.9715 169.007 18.5272C169.575 20.2244 169.858 21.9215 169.858 23.7601C169.858 25.5987 169.575 27.2958 169.007 28.993C168.44 30.5487 167.59 31.963 166.597 33.2358C165.463 34.3673 164.187 35.3573 162.627 36.0644C161.068 36.7715 159.366 37.0544 157.381 37.0544C155.396 37.0544 153.695 36.7715 152.135 36.0644C150.575 35.3573 149.299 34.5087 148.165 33.2358C147.031 32.1044 146.322 30.6901 145.755 28.993C145.188 27.4373 144.904 25.5987 144.904 23.7601C144.904 21.9215 145.188 20.083 145.755 18.5272ZM150.859 26.8715C151.143 27.8615 151.568 28.8515 151.993 29.5587C152.56 30.4072 153.269 30.973 154.12 31.5387C154.971 31.963 156.105 32.2458 157.381 32.2458C158.657 32.2458 159.65 31.963 160.642 31.5387C161.493 31.1144 162.202 30.4072 162.769 29.5587C163.336 28.7101 163.761 27.8615 163.903 26.8715C164.187 25.8815 164.329 24.8915 164.329 23.7601C164.329 22.6287 164.187 21.4972 163.903 20.5072C163.62 19.5172 163.194 18.5272 162.769 17.6787C162.202 16.8301 161.493 16.2644 160.642 15.6987C159.791 15.2744 158.657 14.9915 157.381 14.9915C156.105 14.9915 155.113 15.2744 154.12 15.6987C153.269 16.123 152.56 16.8301 151.993 17.6787C151.426 18.5272 151.001 19.3758 150.859 20.5072C150.575 21.4972 150.434 22.6287 150.434 23.7601C150.434 24.8915 150.575 25.8815 150.859 26.8715Z" fill="white"/>
<path d="M35.3045 61.2385C34.4538 61.6628 33.4613 61.8043 32.6106 61.8043C31.1928 61.8043 29.9167 61.5214 28.7824 61.0971C27.6481 60.5314 26.6556 59.9657 25.9467 58.9757C25.096 58.1271 24.5289 57.1371 24.1035 55.8643C23.6782 54.7328 23.5364 53.46 23.5364 52.0457C23.5364 50.6314 23.6782 49.3585 24.1035 48.2271C24.5289 47.0957 25.096 45.9643 25.9467 45.1157C26.7974 44.2671 27.6481 43.56 28.7824 42.9943C29.9167 42.4285 31.1928 42.2871 32.6106 42.2871C33.6031 42.2871 34.4538 42.4285 35.4463 42.7114C36.297 42.9943 37.1477 43.4185 37.8566 43.9843C38.5656 44.55 39.1327 45.2571 39.6998 46.1057C40.1252 46.9543 40.4088 47.8028 40.5506 48.9343H36.5806C36.297 47.9443 35.8717 47.0957 35.1627 46.53C34.4538 45.9643 33.6031 45.6814 32.6106 45.6814C31.6181 45.6814 30.9092 45.8228 30.2003 46.2471C29.4913 46.6714 29.066 47.0957 28.6406 47.6614C28.2153 48.2271 27.9317 48.9343 27.7899 49.7828C27.6481 50.49 27.5064 51.3385 27.5064 52.1871C27.5064 53.0357 27.6481 53.7428 27.7899 54.45C27.9317 55.1571 28.2153 55.8643 28.6406 56.43C29.066 56.9957 29.6331 57.5614 30.2003 57.8443C30.9092 58.2685 31.6181 58.41 32.6106 58.41C34.0285 58.41 35.0209 58.1271 35.7299 57.42C36.4388 56.7128 36.8641 55.7228 37.0059 54.45H32.8942V51.3385H40.8341V61.38H38.282L37.8566 59.2585C37.1477 60.1071 36.297 60.8143 35.3045 61.2385Z" fill="white"/>
<path d="M54.3037 42.5698C55.1544 42.5698 55.8634 42.7113 56.5723 42.9941C57.2812 43.277 57.8483 43.7013 58.2737 44.1255C58.699 44.5498 59.1244 45.1155 59.408 45.8227C59.6915 46.3884 59.8333 47.0955 59.8333 47.8027C59.8333 48.9341 59.5498 49.9241 59.1244 50.6313C58.6991 51.4798 57.8483 52.0455 56.8558 52.4698C57.423 52.6112 57.8483 52.7527 58.1319 53.177C58.4155 53.4598 58.699 53.7427 58.9826 54.167C59.1244 54.5912 59.408 55.0155 59.408 55.4398C59.5498 55.8641 59.5498 56.4298 59.5498 56.8541C59.5498 57.137 59.5498 57.5613 59.5498 57.8441C59.5498 58.2684 59.5498 58.6927 59.6915 59.117C59.6915 59.5412 59.8333 59.9655 59.8333 60.2484C59.9751 60.6727 60.1169 60.9555 60.2587 61.2384H56.1469C55.8634 60.6727 55.7216 59.9655 55.7216 59.117C55.7216 58.2684 55.5798 57.5612 55.438 56.7127C55.2962 55.7227 55.0126 55.0155 54.5873 54.5912C54.1619 54.167 53.453 53.8841 52.3187 53.8841H48.207V61.2384H44.0952V42.5698H54.3037ZM52.8859 51.0555C53.8784 51.0555 54.5873 50.9141 55.0126 50.4898C55.438 50.0655 55.7216 49.3584 55.7216 48.5098C55.7216 47.6613 55.438 46.9541 55.0126 46.5298C54.5873 46.1055 53.8784 45.9641 52.8859 45.9641H48.3488V51.197H52.8859V51.0555Z" fill="white"/>
<path d="M62.9526 48.2271C63.378 47.0957 63.9451 45.9643 64.7958 45.1157C65.6466 44.2671 66.4973 43.56 67.6315 42.9943C68.7658 42.4285 70.0419 42.2871 71.4597 42.2871C72.8776 42.2871 74.1536 42.57 75.2879 42.9943C76.4222 43.56 77.4147 44.2671 78.1236 45.1157C78.9743 45.9643 79.5415 47.0957 79.9668 48.2271C80.3922 49.3585 80.534 50.7728 80.534 52.0457C80.534 53.46 80.3922 54.7328 79.9668 55.8643C79.5415 56.9957 78.9743 58.1271 78.1236 58.9757C77.2729 59.8243 76.4222 60.5314 75.2879 61.0971C74.1536 61.6628 72.8776 61.8043 71.4597 61.8043C70.0419 61.8043 68.7658 61.5214 67.6315 61.0971C66.4973 60.5314 65.5048 59.9657 64.7958 58.9757C63.9451 58.1271 63.378 57.1371 62.9526 55.8643C62.5273 54.7328 62.3855 53.46 62.3855 52.0457C62.3855 50.6314 62.5273 49.3585 62.9526 48.2271ZM66.7808 54.3085C66.9226 55.0157 67.2062 55.7228 67.6315 56.2885C68.0569 56.8543 68.624 57.42 69.1912 57.7028C69.9001 58.1271 70.609 58.2685 71.6015 58.2685C72.594 58.2685 73.3029 58.1271 74.0119 57.7028C74.7208 57.2785 75.1461 56.8543 75.5715 56.2885C75.9968 55.7228 76.2804 55.0157 76.4222 54.3085C76.564 53.6014 76.7058 52.7528 76.7058 52.0457C76.7058 51.1971 76.564 50.49 76.4222 49.6414C76.2804 48.9343 75.9968 48.2271 75.5715 47.52C75.1461 46.9543 74.579 46.3885 74.0119 46.1057C73.3029 45.6814 72.594 45.54 71.6015 45.54C70.609 45.54 69.9001 45.6814 69.1912 46.1057C68.4822 46.53 68.0569 46.9543 67.6315 47.52C67.2062 48.0857 66.9226 48.7928 66.7808 49.6414C66.639 50.3485 66.4973 51.1971 66.4973 52.0457C66.4973 52.8943 66.4973 53.6014 66.7808 54.3085Z" fill="white"/>
<path d="M97.4064 59.9655C95.9885 61.2384 94.0035 61.8041 91.5932 61.8041C89.0411 61.8041 87.0561 61.2384 85.6382 59.9655C84.2204 58.6927 83.5115 56.8541 83.5115 54.3084V42.7113H87.6232V54.3084C87.6232 54.8741 87.6232 55.2984 87.765 55.8641C87.9068 56.2884 88.0486 56.8541 88.3322 57.137C88.6157 57.5613 89.0411 57.8441 89.4664 57.9855C89.8918 58.127 90.6007 58.2684 91.4514 58.2684C92.8693 58.2684 94.0035 57.9855 94.4289 57.2784C94.996 56.5713 95.2796 55.5813 95.2796 54.167V42.5698H99.3914V54.167C99.5331 56.8541 98.8242 58.6927 97.4064 59.9655Z" fill="white"/>
<path d="M111.443 42.5698C112.577 42.5698 113.57 42.7113 114.42 43.1355C115.271 43.4184 115.98 43.9841 116.405 44.5498C116.973 45.1155 117.256 45.6813 117.54 46.5298C117.823 47.237 117.823 47.9441 117.823 48.7927C117.823 49.4998 117.681 50.3484 117.54 51.0555C117.256 51.7627 116.973 52.4698 116.405 53.0355C115.838 53.6013 115.271 54.0255 114.42 54.4498C113.57 54.7327 112.577 55.0155 111.443 55.0155H107.048V61.6627H102.936V42.5698H111.443ZM110.309 51.4798C110.734 51.4798 111.301 51.4798 111.726 51.3384C112.152 51.3384 112.577 51.197 112.861 50.9141C113.144 50.7727 113.428 50.4898 113.711 50.0655C113.853 49.6413 113.995 49.217 113.995 48.6513C113.995 48.0855 113.853 47.5198 113.711 47.237C113.57 46.8127 113.286 46.5298 112.861 46.3884C112.577 46.247 112.152 46.1055 111.726 45.9641C111.301 45.9641 110.876 45.8227 110.309 45.8227H107.048V51.4798H110.309Z" fill="white"/>
<path d="M3.11939 93.7671C3.40296 93.7671 3.68653 93.7671 3.9701 93.9085C4.25367 94.0499 4.39545 94.1914 4.53724 94.3328C4.67902 94.4742 4.82081 94.6157 4.82081 94.8985C4.82081 95.0399 4.96259 95.3228 4.96259 95.4642C4.96259 95.6057 4.96259 95.8885 4.82081 96.03C4.82081 96.1714 4.67902 96.4542 4.53724 96.5957C4.39545 96.7371 4.25367 96.8785 3.9701 96.8785C3.68653 97.02 3.40296 97.0199 3.11939 97.0199H1.98511V98.8585H0.85083V93.7671H3.11939ZM2.83582 96.1714C2.9776 96.1714 3.11939 96.1714 3.26117 96.1714C3.40296 96.1714 3.54474 96.1714 3.54474 96.03C3.68653 96.03 3.68653 95.8885 3.82831 95.7471C3.82831 95.6057 3.9701 95.4642 3.9701 95.3228C3.9701 95.1814 3.9701 95.0399 3.82831 94.8985C3.82831 94.7571 3.68653 94.7571 3.54474 94.6157C3.40296 94.7571 3.26117 94.7571 3.26117 94.7571C3.11939 94.7571 2.9776 94.7571 2.83582 94.7571H1.98511V96.1714H2.83582Z" fill="white"/>
<path d="M5.52972 96.3131C5.67151 96.0302 5.81329 95.8888 5.95508 95.7473C6.09686 95.6059 6.38043 95.4645 6.52222 95.3231C6.80579 95.1816 7.08936 95.1816 7.37293 95.1816C7.6565 95.1816 7.94007 95.1816 8.22364 95.3231C8.50721 95.4645 8.64899 95.6059 8.79078 95.7473C8.93256 95.8888 9.07435 96.1716 9.21613 96.3131C9.35792 96.5959 9.35792 96.8788 9.35792 97.1616C9.35792 97.4445 9.35792 97.7273 9.21613 98.0102C9.07435 98.2931 8.93256 98.4345 8.79078 98.5759C8.64899 98.7173 8.36542 98.8588 8.22364 99.0002C7.94007 99.0002 7.6565 99.0002 7.37293 99.0002C7.08936 99.0002 6.80579 99.0002 6.52222 98.8588C6.23865 98.7173 6.09686 98.5759 5.95508 98.4345C5.81329 98.293 5.67151 98.0102 5.52972 97.8688C5.38794 97.5859 5.38794 97.3031 5.38794 97.0202C5.38794 96.7373 5.38794 96.4545 5.52972 96.3131ZM6.52222 97.4445C6.52222 97.5859 6.664 97.7273 6.664 97.8688C6.664 98.0102 6.80579 98.0102 6.94757 98.1516C7.08936 98.1516 7.23114 98.2931 7.37293 98.2931C7.51471 98.2931 7.6565 98.2931 7.79828 98.1516C7.94007 98.1516 7.94007 98.0102 8.08185 97.8688C8.08185 97.7273 8.22364 97.5859 8.22364 97.4445C8.22364 97.3031 8.22364 97.1616 8.22364 97.0202C8.22364 96.8788 8.22364 96.7373 8.22364 96.5959C8.22364 96.4545 8.08185 96.3131 8.08185 96.1716C8.08185 96.0302 7.94007 96.0302 7.79828 95.8888C7.6565 95.8888 7.51471 95.7473 7.37293 95.7473C7.23114 95.7473 7.08936 95.7474 6.94757 95.8888C6.80579 95.8888 6.80579 96.0302 6.664 96.1716C6.664 96.3131 6.52222 96.4545 6.52222 96.5959C6.52222 96.7373 6.52222 96.8788 6.52222 97.0202C6.38043 97.1616 6.38043 97.3031 6.52222 97.4445Z" fill="white"/>
<path d="M13.0444 98.8588L12.3355 96.3131L11.7684 98.8588H10.7759L9.6416 95.1816H10.7759L11.343 97.7273L11.9102 95.1816H12.9027L13.4698 97.7273L14.1787 95.1816H15.1712L14.1787 98.8588H13.0444Z" fill="white"/>
<path d="M16.8725 98.0102C17.0143 98.1516 17.2979 98.2931 17.5814 98.2931C17.7232 98.2931 18.0068 98.2931 18.1486 98.1516C18.2903 98.0102 18.4321 98.0102 18.4321 97.8688H19.2828C19.1411 98.2931 18.8575 98.5759 18.5739 98.8588C18.2903 99.0002 17.865 99.1416 17.4396 99.1416C17.1561 99.1416 16.8725 99.1416 16.5889 99.0002C16.3054 98.8588 16.1636 98.7173 16.0218 98.5759C15.88 98.4345 15.7382 98.1516 15.5964 98.0102C15.5964 97.5859 15.5964 97.3031 15.5964 97.0202C15.5964 96.7373 15.5964 96.4545 15.7382 96.3131C15.88 96.0302 16.0218 95.8888 16.1636 95.7473C16.3054 95.6059 16.5889 95.4645 16.7307 95.3231C17.0143 95.1816 17.1561 95.1816 17.4396 95.1816C17.7232 95.1816 18.0068 95.1816 18.2903 95.3231C18.5739 95.4645 18.7157 95.6059 18.8575 95.7473C18.9993 95.8888 19.1411 96.1716 19.1411 96.4545C19.1411 96.7373 19.2828 97.0202 19.2828 97.3031H16.5889C16.5889 97.5859 16.7307 97.8688 16.8725 98.0102ZM18.0068 96.0302C17.865 95.8888 17.7232 95.8888 17.4396 95.8888C17.2979 95.8888 17.1561 95.8888 17.0143 96.0302C16.8725 96.0302 16.8725 96.1716 16.7307 96.1716C16.7307 96.3131 16.5889 96.3131 16.5889 96.4545C16.5889 96.5959 16.5889 96.5959 16.5889 96.7373H18.2903C18.1486 96.4545 18.1486 96.1716 18.0068 96.0302Z" fill="white"/>
<path d="M20.8426 95.1816V95.8888C20.8426 95.7474 20.9844 95.6059 20.9844 95.6059C21.1262 95.4645 21.1262 95.4645 21.2679 95.3231C21.4097 95.3231 21.5515 95.1816 21.5515 95.1816C21.6933 95.1816 21.8351 95.1816 21.9769 95.1816C21.9769 95.1816 22.1187 95.1816 22.2604 95.1816V96.1716H22.1187H21.9769C21.8351 96.1716 21.6933 96.1716 21.5515 96.3131C21.4097 96.3131 21.2679 96.4545 21.2679 96.5959C21.1262 96.7374 21.1262 96.8788 21.1262 97.0202C21.1262 97.1616 21.1262 97.3031 21.1262 97.4445V99.1416H19.8501V95.4645H20.8426V95.1816Z" fill="white"/>
<path d="M28.3571 93.7671V94.7571H25.9468V95.8885H28.0735V96.7371H25.9468V98.8585H24.8125V93.7671H28.3571Z" fill="white"/>
<path d="M28.9243 96.3131C29.066 96.0302 29.2078 95.8888 29.3496 95.7473C29.4914 95.6059 29.775 95.4645 29.9168 95.3231C30.2003 95.1816 30.4839 95.1816 30.7675 95.1816C31.051 95.1816 31.3346 95.1816 31.6182 95.3231C31.9017 95.4645 32.0435 95.6059 32.1853 95.7473C32.3271 95.8888 32.4689 96.1716 32.6107 96.3131C32.7524 96.5959 32.7524 96.8788 32.7524 97.1616C32.7524 97.4445 32.7524 97.7273 32.6107 98.0102C32.4689 98.2931 32.3271 98.4345 32.1853 98.5759C32.0435 98.7173 31.76 98.8588 31.6182 99.0002C31.3346 99.0002 31.051 99.0002 30.7675 99.0002C30.4839 99.0002 30.2003 99.0002 29.9168 98.8588C29.6332 98.7173 29.4914 98.5759 29.3496 98.4345C29.2078 98.293 29.066 98.0102 28.9243 97.8688C28.7825 97.5859 28.7825 97.3031 28.7825 97.0202C28.7825 96.7373 28.7825 96.4545 28.9243 96.3131ZM29.9168 97.4445C29.9168 97.5859 30.0585 97.7273 30.0585 97.8688C30.0585 98.0102 30.2003 98.0102 30.3421 98.1516C30.4839 98.1516 30.6257 98.2931 30.7675 98.2931C30.9092 98.2931 31.051 98.2931 31.1928 98.1516C31.3346 98.1516 31.3346 98.0102 31.4764 97.8688C31.4764 97.7273 31.6182 97.5859 31.6182 97.4445C31.6182 97.3031 31.6182 97.1616 31.6182 97.0202C31.6182 96.8788 31.6182 96.7373 31.6182 96.5959C31.6182 96.4545 31.4764 96.3131 31.4764 96.1716C31.4764 96.0302 31.3346 96.0302 31.1928 95.8888C31.051 95.8888 30.9092 95.7473 30.7675 95.7473C30.6257 95.7473 30.4839 95.7474 30.3421 95.8888C30.2003 95.8888 30.2003 96.0302 30.0585 96.1716C30.0585 96.3131 29.9168 96.4545 29.9168 96.5959C29.9168 96.7373 29.9168 96.8788 29.9168 97.0202C29.775 97.1616 29.775 97.3031 29.9168 97.4445Z" fill="white"/>
<path d="M34.312 95.1816V95.8888C34.312 95.7474 34.4537 95.6059 34.4537 95.6059C34.5955 95.4645 34.5955 95.4645 34.7373 95.3231C34.8791 95.3231 35.0209 95.1816 35.0209 95.1816C35.1627 95.1816 35.3044 95.1816 35.4462 95.1816C35.4462 95.1816 35.588 95.1816 35.7298 95.1816V96.1716H35.588H35.4462C35.3044 96.1716 35.1627 96.1716 35.0209 96.3131C34.8791 96.3131 34.7373 96.4545 34.7373 96.5959C34.5955 96.7374 34.5955 96.8788 34.5955 97.0202C34.5955 97.1616 34.5955 97.3031 34.5955 97.4445V99.1416H33.603V95.4645H34.312V95.1816Z" fill="white"/>
<path d="M37.573 93.7671H38.8491L39.9833 95.7471L41.1176 93.7671H42.5355L40.6923 96.8785V98.8585H39.558V96.8785L37.573 93.7671Z" fill="white"/>
<path d="M42.1102 96.3131C42.252 96.0302 42.3938 95.8888 42.5356 95.7473C42.6774 95.6059 42.9609 95.4645 43.1027 95.3231C43.3863 95.1816 43.6699 95.1816 43.9534 95.1816C44.237 95.1816 44.5206 95.1816 44.8041 95.3231C45.0877 95.4645 45.2295 95.6059 45.3713 95.7473C45.5131 95.8888 45.6549 96.1716 45.7966 96.3131C45.9384 96.5959 45.9384 96.8788 45.9384 97.1616C45.9384 97.4445 45.9384 97.7273 45.7966 98.0102C45.6549 98.2931 45.5131 98.4345 45.3713 98.5759C45.2295 98.7173 44.9459 98.8588 44.8041 99.0002C44.3788 99.0002 44.237 99.0002 43.8116 99.0002C43.3863 99.0002 43.2445 99.0002 42.9609 98.8588C42.6774 98.7173 42.5356 98.5759 42.3938 98.4345C42.252 98.293 42.1102 98.0102 41.9684 97.8688C41.8267 97.5859 41.8267 97.3031 41.8267 97.0202C41.9684 96.7373 41.9684 96.4545 42.1102 96.3131ZM42.9609 97.4445C42.9609 97.5859 43.1027 97.7273 43.1027 97.8688C43.1027 98.0102 43.2445 98.0102 43.3863 98.1516C43.5281 98.1516 43.6699 98.2931 43.8116 98.2931C43.9534 98.2931 44.0952 98.2931 44.237 98.1516C44.3788 98.1516 44.3788 98.0102 44.5206 97.8688C44.5206 97.7273 44.6624 97.5859 44.6624 97.4445C44.6624 97.3031 44.6624 97.1616 44.6624 97.0202C44.6624 96.8788 44.6624 96.7373 44.6624 96.5959C44.6624 96.4545 44.5206 96.3131 44.5206 96.1716C44.5206 96.0302 44.3788 96.0302 44.237 95.8888C44.0952 95.8888 43.9534 95.7473 43.8116 95.7473C43.6699 95.7473 43.5281 95.7474 43.3863 95.8888C43.2445 95.8888 43.2445 96.0302 43.1027 96.1716C43.1027 96.3131 42.9609 96.4545 42.9609 96.5959C42.9609 96.7373 42.9609 96.8788 42.9609 97.0202C42.9609 97.1616 42.9609 97.3031 42.9609 97.4445Z" fill="white"/>
<path d="M48.916 98.8585V98.2928C48.7742 98.5756 48.6324 98.717 48.3488 98.717C48.207 98.9999 48.0653 98.9999 47.7817 98.9999C47.4981 98.9999 47.2145 98.9999 47.0728 98.8585C46.931 98.717 46.7892 98.717 46.6474 98.5756C46.5056 98.4342 46.5056 98.2928 46.5056 98.1513C46.5056 98.0099 46.5056 97.727 46.5056 97.5856V95.3228H47.4981V97.4442C47.4981 97.727 47.4981 98.0099 47.6399 98.1513C47.7817 98.2928 47.9235 98.4342 48.207 98.4342C48.4906 98.4342 48.6324 98.2928 48.7742 98.1513C48.916 98.0099 48.916 97.727 48.916 97.3028V95.3228H49.9085V98.9999H48.916V98.8585Z" fill="white"/>
<path d="M51.7516 95.1816V95.8888C51.7516 95.7474 51.8934 95.6059 51.8934 95.6059C52.0352 95.4645 52.0352 95.4645 52.177 95.3231C52.3188 95.3231 52.4606 95.1816 52.4606 95.1816C52.6024 95.1816 52.7441 95.1816 52.8859 95.1816C52.8859 95.1816 53.0277 95.1816 53.1695 95.1816V96.1716H53.0277H52.8859C52.7441 96.1716 52.6024 96.1716 52.4606 96.3131C52.3188 96.3131 52.177 96.4545 52.177 96.5959C52.0352 96.7374 52.0352 96.8788 52.0352 97.0202C52.0352 97.1616 52.0352 97.3031 52.0352 97.4445V99.1416H51.0427V95.4645H51.7516V95.1816Z" fill="white"/>
<path d="M57.9902 93.7671C58.2737 93.7671 58.4155 93.7671 58.6991 93.7671C58.8409 93.7671 59.1245 93.9085 59.2662 93.9085C59.408 94.0499 59.5498 94.1914 59.5498 94.3328C59.6916 94.4742 59.6916 94.7571 59.6916 94.8985C59.6916 95.1814 59.6916 95.3228 59.5498 95.6057C59.408 95.7471 59.2662 95.8885 58.9827 96.03C59.2662 96.1714 59.5498 96.3128 59.6916 96.4542C59.8334 96.7371 59.9752 97.02 59.9752 97.3028C59.9752 97.5857 59.9752 97.7271 59.8334 98.01C59.6916 98.1514 59.5498 98.2928 59.408 98.4342C59.2662 98.5757 58.9827 98.5757 58.8409 98.7171C58.5573 98.7171 58.4155 98.8585 58.132 98.8585H55.5798V93.7671H57.9902ZM57.8484 95.8885C57.9902 95.8885 58.2737 95.8885 58.2737 95.7471C58.4155 95.6057 58.4155 95.4642 58.4155 95.3228C58.4155 95.1814 58.4155 95.0399 58.4155 95.0399C58.4155 94.8985 58.2737 94.8985 58.2737 94.8985C58.2737 94.7571 58.132 94.7571 58.132 94.7571C57.9902 94.7571 57.9902 94.7571 57.8484 94.7571H56.7141V95.8885H57.8484ZM57.9902 98.01C58.132 98.01 58.2737 98.01 58.2737 98.01C58.4155 98.01 58.4155 98.0099 58.5573 97.8685C58.6991 97.8685 58.6991 97.7271 58.6991 97.7271C58.6991 97.5857 58.6991 97.5857 58.6991 97.4442C58.6991 97.1614 58.5573 97.02 58.4155 96.8785C58.2737 96.7371 58.132 96.7371 57.8484 96.7371H56.7141V98.1514H57.9902V98.01Z" fill="white"/>
<path d="M63.0944 98.8585V98.2928C62.9526 98.5756 62.8109 98.717 62.5273 98.717C62.3855 98.9999 62.1019 98.9999 61.9601 98.9999C61.6766 98.9999 61.393 98.9999 61.2512 98.8585C61.1094 98.717 60.9677 98.717 60.8259 98.5756C60.6841 98.4342 60.6841 98.2928 60.6841 98.1513C60.6841 98.0099 60.6841 97.727 60.6841 97.5856V95.3228H61.6766V97.4442C61.6766 97.727 61.6766 98.0099 61.8184 98.1513C61.9601 98.2928 62.1019 98.4342 62.3855 98.4342C62.6691 98.4342 62.8109 98.2928 62.9526 98.1513C63.0944 98.0099 63.0944 97.727 63.0944 97.3028V95.3228H64.0869V98.9999H63.0944V98.8585Z" fill="white"/>
<path d="M65.6465 98.0101C65.6465 98.1515 65.7883 98.1515 65.7883 98.1515C65.9301 98.1515 65.9301 98.2929 66.0719 98.2929C66.2137 98.2929 66.2137 98.2929 66.3555 98.2929C66.4973 98.2929 66.4973 98.2929 66.639 98.2929C66.7808 98.2929 66.7808 98.2929 66.9226 98.1515L67.0644 98.0101C67.0644 98.0101 67.0644 97.8686 67.0644 97.7272C67.0644 97.5858 66.9226 97.4443 66.7808 97.4443C66.639 97.3029 66.3555 97.3029 65.9301 97.1615C65.7883 97.1615 65.6465 97.02 65.5048 97.02C65.363 97.02 65.2212 96.8786 65.0794 96.8786C64.9376 96.7372 64.9376 96.7372 64.7958 96.5958C64.7958 96.4543 64.6541 96.3129 64.6541 96.1715C64.6541 95.8886 64.6541 95.7472 64.7958 95.6058C64.9376 95.4643 65.0794 95.3229 65.2212 95.1815C65.363 95.04 65.5048 95.04 65.7883 95.04C65.9301 95.04 66.2137 95.04 66.3555 95.04C66.4973 95.04 66.7808 95.04 66.9226 95.04C67.0644 95.04 67.348 95.1815 67.4897 95.1815C67.6315 95.3229 67.7733 95.3229 67.9151 95.6058C68.0569 95.7472 68.0569 95.8886 68.0569 96.1715H67.0644C67.0644 96.03 66.9226 95.8886 66.7808 95.7472C66.639 95.7472 66.4973 95.6058 66.3555 95.6058H66.2137H66.0719C66.0719 95.6058 65.9301 95.6058 65.9301 95.7472V95.8886C65.9301 96.03 65.9301 96.03 66.0719 96.1715C66.0719 96.1715 66.2137 96.3129 66.3555 96.3129C66.4973 96.3129 66.639 96.3129 66.7808 96.4543C66.9226 96.4543 67.0644 96.4543 67.2062 96.5958C67.348 96.5958 67.4897 96.7372 67.6315 96.7372C67.7733 96.7372 67.9151 96.8786 68.0569 96.8786C68.1987 97.02 68.1987 97.02 68.3405 97.1615C68.3405 97.3029 68.4822 97.4443 68.4822 97.5858C68.4822 97.8686 68.4822 98.01 68.3405 98.1515C68.1987 98.2929 68.0569 98.4343 67.9151 98.5758C67.7733 98.7172 67.6315 98.7172 67.348 98.7172C67.0644 98.7172 66.9226 98.7172 66.7808 98.7172C66.4973 98.7172 66.3555 98.7172 66.2137 98.7172C66.0719 98.7172 65.7883 98.5758 65.6465 98.4343C65.5048 98.2929 65.363 98.1515 65.2212 98.0101C65.0794 97.8686 65.0794 97.5858 65.0794 97.4443H66.0719C65.6465 97.8686 65.6465 97.8686 65.6465 98.0101Z" fill="white"/>
<path d="M68.7659 94.6157V93.7671H69.7584V94.6157H68.7659ZM69.7584 95.1814V98.8585H68.7659V95.1814H69.7584Z" fill="white"/>
<path d="M71.4598 95.1816V95.7473C71.6016 95.4645 71.7433 95.3231 72.0269 95.3231C72.1687 95.1816 72.4523 95.1816 72.5941 95.1816C72.8776 95.1816 73.1612 95.1816 73.303 95.3231C73.4448 95.4645 73.5865 95.4645 73.7283 95.6059C73.8701 95.7473 73.8701 95.8888 73.8701 96.0302C73.8701 96.1716 73.8701 96.4545 73.8701 96.5959V98.8588H72.8776V96.7373C72.8776 96.4545 72.8776 96.1716 72.7358 96.0302C72.5941 95.8888 72.4523 95.7473 72.1687 95.7473C71.8851 95.7473 71.7433 95.8888 71.6016 96.0302C71.4598 96.1716 71.4598 96.4545 71.4598 96.8788V98.8588H70.4673V95.1816H71.4598Z" fill="white"/>
<path d="M75.8549 98.0102C75.9967 98.1516 76.2803 98.2931 76.5638 98.2931C76.7056 98.2931 76.9892 98.2931 77.131 98.1516C77.2728 98.0102 77.4146 98.0102 77.4146 97.8688H78.2653C78.1235 98.293 77.8399 98.5759 77.5563 98.8588C77.2728 98.8588 76.8474 99.0002 76.5638 99.0002C76.2803 99.0002 75.9967 99.0002 75.7131 98.8588C75.4296 98.7173 75.2878 98.5759 75.146 98.4345C75.0042 98.293 74.8624 98.0102 74.7206 97.8688C74.5789 97.5859 74.5789 97.3031 74.5789 97.0202C74.5789 96.7373 74.5789 96.4545 74.7206 96.3131C74.8624 96.0302 75.0042 95.8888 75.146 95.7473C75.2878 95.6059 75.5714 95.4645 75.7131 95.3231C75.9967 95.1816 76.1385 95.1816 76.4221 95.1816C76.7056 95.1816 76.9892 95.1816 77.2728 95.3231C77.5563 95.4645 77.6981 95.6059 77.8399 95.7473C77.9817 95.8888 78.1235 96.1716 78.1235 96.4545C78.1235 96.7373 78.2653 97.0202 78.2653 97.3031H75.5714C75.5714 97.5859 75.7131 97.8688 75.8549 98.0102ZM76.9892 96.0302C76.8474 95.8888 76.7056 95.8888 76.4221 95.8888C76.2803 95.8888 76.1385 95.8888 75.9967 96.0302C75.8549 96.0302 75.8549 96.1716 75.7131 96.1716C75.5714 96.1716 75.5714 96.3131 75.5714 96.4545C75.5714 96.5959 75.5714 96.5959 75.5714 96.7373H77.2728C77.2728 96.4545 77.131 96.1716 76.9892 96.0302Z" fill="white"/>
<path d="M79.825 98.0101C79.825 98.1515 79.9668 98.1515 79.9668 98.1515C80.1086 98.1515 80.1086 98.2929 80.2504 98.2929C80.3922 98.2929 80.3922 98.2929 80.5339 98.2929C80.6757 98.2929 80.6757 98.2929 80.8175 98.2929C80.9593 98.2929 80.9593 98.2929 81.1011 98.1515L81.2429 98.0101C81.2429 98.0101 81.2429 97.8686 81.2429 97.7272C81.2429 97.5858 81.1011 97.4443 80.9593 97.4443C80.8175 97.3029 80.5339 97.3029 80.1086 97.1615C79.9668 97.1615 79.825 97.02 79.6832 97.02C79.5414 97.02 79.3997 96.8786 79.2579 96.8786C79.1161 96.7372 79.1161 96.7372 78.9743 96.5958C78.9743 96.4543 78.8325 96.3129 78.8325 96.1715C78.8325 95.8886 78.8325 95.7472 78.9743 95.6058C79.1161 95.4643 79.2579 95.3229 79.3997 95.1815C79.5414 95.04 79.6832 95.04 79.9668 95.04C80.1086 95.04 80.3922 95.04 80.5339 95.04C80.6757 95.04 80.9593 95.04 81.1011 95.04C81.2429 95.04 81.5264 95.1815 81.6682 95.1815C81.81 95.3229 81.9518 95.3229 82.0936 95.6058C82.2354 95.7472 82.2354 95.8886 82.2354 96.1715H81.2429C81.2429 96.03 81.1011 95.8886 80.9593 95.7472C80.8175 95.7472 80.6757 95.6058 80.5339 95.6058H80.3922H80.2504C80.2504 95.6058 80.1086 95.6058 80.1086 95.7472V95.8886C80.1086 96.03 80.1086 96.03 80.2504 96.1715C80.2504 96.1715 80.3922 96.3129 80.5339 96.3129C80.6757 96.3129 80.8175 96.3129 80.9593 96.4543C81.1011 96.4543 81.2429 96.4543 81.3847 96.5958C81.5264 96.5958 81.6682 96.7372 81.81 96.7372C81.9518 96.7372 82.0936 96.8786 82.2354 96.8786C82.3772 97.02 82.3772 97.02 82.5189 97.1615C82.5189 97.3029 82.6607 97.4443 82.6607 97.5858C82.6607 97.8686 82.6607 98.01 82.5189 98.1515C82.3772 98.2929 82.2354 98.4343 82.0936 98.5758C81.9518 98.7172 81.81 98.7172 81.5264 98.7172C81.2429 98.7172 81.1011 98.7172 80.9593 98.7172C80.6757 98.7172 80.5339 98.7172 80.3922 98.7172C80.2504 98.7172 79.9668 98.5758 79.825 98.4343C79.6832 98.2929 79.5414 98.1515 79.3997 98.0101C79.2579 97.8686 79.2579 97.5858 79.2579 97.4443H80.2504C79.6832 97.8686 79.6832 97.8686 79.825 98.0101Z" fill="white"/>
<path d="M83.6531 98.0101C83.6531 98.1515 83.7949 98.1515 83.7949 98.1515C83.9367 98.1515 83.9367 98.2929 84.0785 98.2929C84.2203 98.2929 84.2203 98.2929 84.3621 98.2929C84.5038 98.2929 84.5038 98.2929 84.6456 98.2929C84.7874 98.2929 84.7874 98.2929 84.9292 98.1515L85.071 98.0101C85.071 98.0101 85.071 97.8686 85.071 97.7272C85.071 97.5858 84.9292 97.4443 84.7874 97.4443C84.6456 97.3029 84.3621 97.3029 83.9367 97.1615C83.7949 97.1615 83.6531 97.02 83.5114 97.02C83.3696 97.02 83.2278 96.8786 83.086 96.8786C82.9442 96.7372 82.9442 96.7372 82.8024 96.5958C82.8024 96.4543 82.6606 96.3129 82.6606 96.1715C82.6606 95.8886 82.6606 95.7472 82.8024 95.6058C82.9442 95.4643 83.086 95.3229 83.2278 95.1815C83.3696 95.04 83.5114 95.04 83.7949 95.04C83.9367 95.04 84.2203 95.04 84.3621 95.04C84.5038 95.04 84.7874 95.04 84.9292 95.04C85.071 95.04 85.3546 95.1815 85.4963 95.1815C85.6381 95.3229 85.7799 95.3229 85.9217 95.6058C86.0635 95.7472 86.0635 95.8886 86.0635 96.1715H85.071C85.071 96.03 84.9292 95.8886 84.7874 95.7472C84.6456 95.7472 84.5038 95.6058 84.3621 95.6058H84.2203H84.0785C84.0785 95.6058 83.9367 95.6058 83.9367 95.7472V95.8886C83.9367 96.03 83.9367 96.03 84.0785 96.1715C84.0785 96.1715 84.2203 96.3129 84.3621 96.3129C84.5038 96.3129 84.6456 96.3129 84.7874 96.4543C84.9292 96.4543 85.071 96.4543 85.2128 96.5958C85.3546 96.5958 85.4963 96.7372 85.6381 96.7372C85.7799 96.7372 85.9217 96.8786 86.0635 96.8786C86.2053 97.02 86.2053 97.02 86.347 97.1615C86.347 97.3029 86.4888 97.4443 86.4888 97.5858C86.4888 97.8686 86.4888 98.01 86.347 98.1515C86.2053 98.2929 86.0635 98.4343 85.9217 98.5758C85.7799 98.7172 85.6381 98.7172 85.3546 98.7172C85.071 98.7172 84.9292 98.7172 84.7874 98.7172C84.5038 98.7172 84.3621 98.7172 84.2203 98.7172C84.0785 98.7172 83.7949 98.5758 83.6531 98.4343C83.5114 98.2929 83.3696 98.1515 83.2278 98.0101C83.086 97.8686 83.086 97.5858 83.086 97.4443H84.0785C83.5114 97.8686 83.5114 97.8686 83.6531 98.0101Z" fill="white"/>
</g>
<defs>
<clipPath id="clip0_197_812">
<rect width="170" height="99" fill="white"/>
</clipPath>
</defs>
</svg>
